{
    "asset" : {
        "generator" : "Khronos glTF Blender I/O v1.1.45",
        "version" : "2.0"
    },
    "scene" : 0,
    "scenes" : [
        {
            "name" : "Scene",
            "nodes" : [
                0,
                1,
                2,
                3,
                4,
                5,
                6
            ]
        }
    ],
    "nodes" : [
        {
            "mesh" : 0,
            "name" : "Cylinder",
            "scale" : [
                0.008543292991816998,
                0.9778712391853333,
                0.005308379884809256
            ],
            "translation" : [
                0,
                1.0383225679397583,
                0
            ]
        },
        {
            "mesh" : 1,
            "name" : "Sphere",
            "scale" : [
                0.04331757128238678,
                0.16588656604290009,
                -0.0036956602707505226
            ],
            "translation" : [
                -0.019606439396739006,
                2.038323402404785,
                0
            ]
        },
        {
            "mesh" : 2,
            "name" : "Cube",
            "rotation" : [
                0,
                0,
                -0.005803684704005718,
                0.9999831318855286
            ],
            "scale" : [
                0.003256797092035413,
                0.00383211812004447,
                -0.002655394608154893
            ],
            "translation" : [
                0,
                2.035388708114624,
                0
            ]
        },
        {
            "mesh" : 3,
            "name" : "Cube.001",
            "scale" : [
                0.00602097949013114,
                0.006894571240991354,
                0.004471096675843
            ],
            "translation" : [
                0,
                2.026735782623291,
                0
            ]
        },
        {
            "mesh" : 4,
            "name" : "Cylinder.001",
            "scale" : [
                0.022141821682453156,
                0.0005167481140233576,
                0.005072741769254208
            ],
            "translation" : [
                0.0017667803913354874,
                2.0379128456115723,
                0
            ]
        },
        {
            "mesh" : 5,
            "name" : "Cylinder.002",
            "scale" : [
                -0.010976327583193779,
                0.0030053569935262203,
                -0.04069335386157036
            ],
            "translation" : [
                0,
                2.017930507659912,
                0
            ]
        },
        {
            "mesh" : 6,
            "name" : "Icosphere",
            "scale" : [
                0.011412800289690495,
                0.040396273136138916,
                -0.011957325972616673
            ],
            "translation" : [
                0,
                0.04966999962925911,
                0
            ]
        }
    ],
    "materials" : [
        {
            "doubleSided" : true,
            "emissiveFactor" : [
                0,
                0,
                0
            ],
            "name" : "Material.001",
            "pbrMetallicRoughness" : {
                "baseColorFactor" : [
                    0,
                    0,
                    0,
                    1
                ],
                "metallicFactor" : 0,
                "roughnessFactor" : 0.5
            }
        }
    ],
    "meshes" : [
        {
            "name" : "Cylinder",
            "primitives" : [
                {
                    "attributes" : {
                        "POSITION" : 0,
                        "NORMAL" : 1,
                        "TEXCOORD_0" : 2
                    },
                    "indices" : 3,
                    "material" : 0
                }
            ]
        },
        {
            "name" : "Sphere",
            "primitives" : [
                {
                    "attributes" : {
                        "POSITION" : 4,
                        "NORMAL" : 5,
                        "TEXCOORD_0" : 6
                    },
                    "indices" : 7
                }
            ]
        },
        {
            "name" : "Cube.002",
            "primitives" : [
                {
                    "attributes" : {
                        "POSITION" : 8,
                        "NORMAL" : 9,
                        "TEXCOORD_0" : 10
                    },
                    "indices" : 11
                }
            ]
        },
        {
            "name" : "Cube.003",
            "primitives" : [
                {
                    "attributes" : {
                        "POSITION" : 12,
                        "NORMAL" : 13,
                        "TEXCOORD_0" : 14
                    },
                    "indices" : 11,
                    "material" : 0
                }
            ]
        },
        {
            "name" : "Cylinder.001",
            "primitives" : [
                {
                    "attributes" : {
                        "POSITION" : 15,
                        "NORMAL" : 16,
                        "TEXCOORD_0" : 17
                    },
                    "indices" : 3
                }
            ]
        },
        {
            "name" : "Cylinder.002",
            "primitives" : [
                {
                    "attributes" : {
                        "POSITION" : 18,
                        "NORMAL" : 19,
                        "TEXCOORD_0" : 20
                    },
                    "indices" : 3,
                    "material" : 0
                }
            ]
        },
        {
            "name" : "Icosphere",
            "primitives" : [
                {
                    "attributes" : {
                        "POSITION" : 21,
                        "NORMAL" : 22,
                        "TEXCOORD_0" : 23
                    },
                    "indices" : 24,
                    "material" : 0
                }
            ]
        }
    ],
    "accessors" : [
        {
            "bufferView" : 0,
            "componentType" : 5126,
            "count" : 192,
            "max" : [
                1,
                1,
                1
            ],
            "min" : [
                -1,
                -1,
                -1
            ],
            "type" : "VEC3"
        },
        {
            "bufferView" : 1,
            "componentType" : 5126,
            "count" : 192,
            "type" : "VEC3"
        },
        {
            "bufferView" : 2,
            "componentType" : 5126,
            "count" : 192,
            "type" : "VEC2"
        },
        {
            "bufferView" : 3,
            "componentType" : 5123,
            "count" : 372,
            "type" : "SCALAR"
        },
        {
            "bufferView" : 4,
            "componentType" : 5126,
            "count" : 558,
            "max" : [
                1.000000238418579,
                1.0820894241333008,
                0.9807857275009155
            ],
            "min" : [
                -0.4689484238624573,
                -0.002897426253184676,
                -0.9807852506637573
            ],
            "type" : "VEC3"
        },
        {
            "bufferView" : 5,
            "componentType" : 5126,
            "count" : 558,
            "type" : "VEC3"
        },
        {
            "bufferView" : 6,
            "componentType" : 5126,
            "count" : 558,
            "type" : "VEC2"
        },
        {
            "bufferView" : 7,
            "componentType" : 5123,
            "count" : 810,
            "type" : "SCALAR"
        },
        {
            "bufferView" : 8,
            "componentType" : 5126,
            "count" : 24,
            "max" : [
                1,
                1,
                1
            ],
            "min" : [
                -1,
                -1,
                -1
            ],
            "type" : "VEC3"
        },
        {
            "bufferView" : 9,
            "componentType" : 5126,
            "count" : 24,
            "type" : "VEC3"
        },
        {
            "bufferView" : 10,
            "componentType" : 5126,
            "count" : 24,
            "type" : "VEC2"
        },
        {
            "bufferView" : 11,
            "componentType" : 5123,
            "count" : 36,
            "type" : "SCALAR"
        },
        {
            "bufferView" : 12,
            "componentType" : 5126,
            "count" : 24,
            "max" : [
                1,
                1,
                1
            ],
            "min" : [
                -1,
                -1,
                -1
            ],
            "type" : "VEC3"
        },
        {
            "bufferView" : 13,
            "componentType" : 5126,
            "count" : 24,
            "type" : "VEC3"
        },
        {
            "bufferView" : 14,
            "componentType" : 5126,
            "count" : 24,
            "type" : "VEC2"
        },
        {
            "bufferView" : 15,
            "componentType" : 5126,
            "count" : 192,
            "max" : [
                1,
                1,
                1
            ],
            "min" : [
                -1,
                -1,
                -1
            ],
            "type" : "VEC3"
        },
        {
            "bufferView" : 16,
            "componentType" : 5126,
            "count" : 192,
            "type" : "VEC3"
        },
        {
            "bufferView" : 17,
            "componentType" : 5126,
            "count" : 192,
            "type" : "VEC2"
        },
        {
            "bufferView" : 18,
            "componentType" : 5126,
            "count" : 192,
            "max" : [
                1,
                1,
                1
            ],
            "min" : [
                -1,
                -1,
                -1
            ],
            "type" : "VEC3"
        },
        {
            "bufferView" : 19,
            "componentType" : 5126,
            "count" : 192,
            "type" : "VEC3"
        },
        {
            "bufferView" : 20,
            "componentType" : 5126,
            "count" : 192,
            "type" : "VEC2"
        },
        {
            "bufferView" : 21,
            "componentType" : 5126,
            "count" : 240,
            "max" : [
                0.9510578513145447,
                1,
                0.9999999403953552
            ],
            "min" : [
                -0.9510578513145447,
                -1,
                -0.9999999403953552
            ],
            "type" : "VEC3"
        },
        {
            "bufferView" : 22,
            "componentType" : 5126,
            "count" : 240,
            "type" : "VEC3"
        },
        {
            "bufferView" : 23,
            "componentType" : 5126,
            "count" : 240,
            "type" : "VEC2"
        },
        {
            "bufferView" : 24,
            "componentType" : 5123,
            "count" : 240,
            "type" : "SCALAR"
        }
    ],
    "bufferViews" : [
        {
            "buffer" : 0,
            "byteLength" : 2304,
            "byteOffset" : 0
        },
        {
            "buffer" : 0,
            "byteLength" : 2304,
            "byteOffset" : 2304
        },
        {
            "buffer" : 0,
            "byteLength" : 1536,
            "byteOffset" : 4608
        },
        {
            "buffer" : 0,
            "byteLength" : 744,
            "byteOffset" : 6144
        },
        {
            "buffer" : 0,
            "byteLength" : 6696,
            "byteOffset" : 6888
        },
        {
            "buffer" : 0,
            "byteLength" : 6696,
            "byteOffset" : 13584
        },
        {
            "buffer" : 0,
            "byteLength" : 4464,
            "byteOffset" : 20280
        },
        {
            "buffer" : 0,
            "byteLength" : 1620,
            "byteOffset" : 24744
        },
        {
            "buffer" : 0,
            "byteLength" : 288,
            "byteOffset" : 26364
        },
        {
            "buffer" : 0,
            "byteLength" : 288,
            "byteOffset" : 26652
        },
        {
            "buffer" : 0,
            "byteLength" : 192,
            "byteOffset" : 26940
        },
        {
            "buffer" : 0,
            "byteLength" : 72,
            "byteOffset" : 27132
        },
        {
            "buffer" : 0,
            "byteLength" : 288,
            "byteOffset" : 27204
        },
        {
            "buffer" : 0,
            "byteLength" : 288,
            "byteOffset" : 27492
        },
        {
            "buffer" : 0,
            "byteLength" : 192,
            "byteOffset" : 27780
        },
        {
            "buffer" : 0,
            "byteLength" : 2304,
            "byteOffset" : 27972
        },
        {
            "buffer" : 0,
            "byteLength" : 2304,
            "byteOffset" : 30276
        },
        {
            "buffer" : 0,
            "byteLength" : 1536,
            "byteOffset" : 32580
        },
        {
            "buffer" : 0,
            "byteLength" : 2304,
            "byteOffset" : 34116
        },
        {
            "buffer" : 0,
            "byteLength" : 2304,
            "byteOffset" : 36420
        },
        {
            "buffer" : 0,
            "byteLength" : 1536,
            "byteOffset" : 38724
        },
        {
            "buffer" : 0,
            "byteLength" : 2880,
            "byteOffset" : 40260
        },
        {
            "buffer" : 0,
            "byteLength" : 2880,
            "byteOffset" : 43140
        },
        {
            "buffer" : 0,
            "byteLength" : 1920,
            "byteOffset" : 46020
        },
        {
            "buffer" : 0,
            "byteLength" : 480,
            "byteOffset" : 47940
        }
    ],
    "buffers" : [
        {
            "byteLength" : 48420,
            "uri" : "data:application/octet-stream;base64,"
        }
    ]
}
